<?xml version="1.0" encoding="UTF-8"?> <svg xmlns="http://www.w3.org/2000/svg" width="65" height="68" viewBox="0 0 65 68" fill="none"><path d="M63.0508 19.5199L31.9308 37.4799L1.05078 19.6499L32.1608 1.67993L63.0508 19.5199Z" fill="#FFC700"></path><path fill-rule="evenodd" clip-rule="evenodd" d="M31.6606 0.81401C31.9701 0.635251 32.3514 0.635238 32.6609 0.813975L63.5509 18.654C63.8603 18.8327 64.0508 19.1628 64.0508 19.5201C64.0507 19.8774 63.8601 20.2075 63.5506 20.3861L32.4306 38.346C32.1212 38.5246 31.7401 38.5246 31.4308 38.3459L0.550751 20.5159C0.241394 20.3373 0.0508123 20.0072 0.0507813 19.65C0.0507503 19.2928 0.241275 18.9627 0.550601 18.784L31.6606 0.81401ZM32.1608 2.83475L3.05036 19.6498L31.9309 36.3253L61.0507 19.5196L32.1608 2.83475Z" fill="#000222"></path><path d="M63.0497 48.78L31.9297 66.74V37.48L63.0497 19.52V48.78Z" fill="#FFC700"></path><path fill-rule="evenodd" clip-rule="evenodd" d="M63.5498 18.654C63.8591 18.8327 64.0497 19.1628 64.0497 19.52V48.78C64.0497 49.1373 63.859 49.4675 63.5495 49.6461L32.4295 67.6061C32.1201 67.7847 31.739 67.7846 31.4296 67.606C31.1203 67.4273 30.9297 67.0972 30.9297 66.74V37.48C30.9297 37.1227 31.1204 36.7925 31.4298 36.6139L62.5498 18.6539C62.8592 18.4753 63.2404 18.4754 63.5498 18.654ZM32.9297 38.0575V65.0083L62.0497 48.2025V21.2517L32.9297 38.0575Z" fill="#000222"></path><path d="M31.9308 66.7399L1.05078 48.9099V19.6499L31.9308 37.4799V66.7399Z" fill="#FFC700"></path><path fill-rule="evenodd" clip-rule="evenodd" d="M0.550796 18.7839C0.860206 18.6052 1.24141 18.6052 1.55081 18.7839L32.4308 36.6139C32.7402 36.7925 32.9308 37.1227 32.9308 37.4799V66.7399C32.9308 67.0972 32.7402 67.4273 32.4308 67.6059C32.1214 67.7846 31.7402 67.7846 31.4308 67.6059L0.550752 49.7759C0.241367 49.5973 0.0507812 49.2672 0.0507812 48.9099V19.6499C0.0507812 19.2926 0.241387 18.9625 0.550796 18.7839ZM2.05078 21.382V48.3326L30.9308 65.0078V38.0572L2.05078 21.382Z" fill="#000222"></path><path d="M45.5308 10.0301C45.5608 8.03008 44.2508 6.02008 41.6208 4.50008C41.4208 4.39008 41.2208 4.28008 41.0108 4.17008C40.8208 4.05008 40.6308 3.92009 40.4208 3.80009C35.8308 1.15009 28.3508 1.16008 23.7308 3.84008C23.5008 3.97008 23.2908 4.10009 23.0908 4.24009C22.9008 4.34009 22.7208 4.44008 22.5408 4.54008C19.9108 6.06008 18.5808 8.04008 18.5608 10.0301V13.9901V19.5801C18.5408 21.5801 19.8408 23.5801 22.4808 25.1101C27.7308 28.1401 36.2708 28.1201 41.5608 25.0701C44.2208 23.5301 45.5508 21.5201 45.5408 19.5201V14.0001V10.0401L45.5308 10.0301Z" fill="#FFC700"></path><path fill-rule="evenodd" clip-rule="evenodd" d="M32.0849 0.821335C35.2342 0.814822 38.4351 1.49959 40.9188 2.93292C41.0902 3.03097 41.2669 3.14536 41.4075 3.23638C41.4454 3.26087 41.4806 3.28366 41.5124 3.30399C41.7172 3.41187 41.912 3.51897 42.0979 3.62125L42.1027 3.62387L42.1212 3.63428C44.8814 5.22957 46.5044 7.4662 46.531 9.90063C46.5375 9.94657 46.5408 9.99315 46.5408 10.0401V19.5179C46.5519 22.0056 44.8991 24.2929 42.0618 25.9355L42.0603 25.9364C39.229 27.5688 35.5897 28.3623 32.0079 28.3701C28.4267 28.3779 24.795 27.6003 21.9809 25.9762L21.9793 25.9753C19.1564 24.3393 17.5382 22.0594 17.5608 19.5753V10.02C17.5856 7.55003 19.2325 5.29707 22.0404 3.67427L22.0551 3.66592C22.2175 3.5757 22.3893 3.48028 22.5703 3.38412C22.7836 3.23752 23.0029 3.10293 23.2338 2.97228C25.7305 1.52547 28.9365 0.827847 32.0849 0.821335ZM32.0891 2.82133C29.1971 2.82731 26.3551 3.47378 24.2325 4.70508L24.2229 4.7107C24.0147 4.82835 23.8328 4.94134 23.6643 5.05932C23.6298 5.08346 23.5938 5.1054 23.5566 5.12501C23.3806 5.21764 23.2123 5.31094 23.034 5.41004C20.5896 6.82495 19.578 8.52807 19.5608 10.0354V19.5901C19.5456 21.1037 20.5268 22.8215 22.981 24.2442C25.4169 25.6499 28.68 26.3773 32.0036 26.3701C35.3265 26.3629 38.6018 25.6216 41.0604 24.2043C43.5416 22.7676 44.5483 21.0362 44.5408 19.5251L44.5408 19.5201V10.1708C44.5335 10.1196 44.5301 10.0675 44.5309 10.0151C44.5535 8.50723 43.568 6.78332 41.1294 5.37108C40.9316 5.2623 40.7432 5.15881 40.5468 5.05591C40.5229 5.04341 40.4996 5.02995 40.4768 5.01557C40.3978 4.96566 40.3299 4.92167 40.2674 4.88117C40.1472 4.80322 40.0468 4.73812 39.9246 4.66833L39.9208 4.66611C37.8148 3.45022 34.9814 2.81535 32.0891 2.82133Z" fill="#000222"></path><path d="M41.6203 4.50993C41.4203 4.39993 41.2204 4.28993 41.0104 4.17993C45.0004 6.84993 44.7803 10.8999 40.3603 13.4499C35.7303 16.1199 28.2603 16.1399 23.6703 13.4899C19.3003 10.9699 19.1204 6.93994 23.0904 4.24994C22.9004 4.34994 22.7203 4.44994 22.5403 4.54994C17.2503 7.59994 17.2203 12.5299 22.4703 15.5599C27.7203 18.5899 36.2603 18.5699 41.5503 15.5199C46.8403 12.4699 46.8703 7.53993 41.6203 4.50993Z" fill="#FFC700"></path><path fill-rule="evenodd" clip-rule="evenodd" d="M40.4949 3.87344C40.6578 3.5993 41.0067 3.50047 41.2892 3.64843C41.5042 3.76105 41.7083 3.87331 41.9064 3.9823L41.9207 3.99016C44.6563 5.56899 46.1525 7.72739 46.1382 10.0112C46.1239 12.2926 44.6033 14.4525 41.8504 16.0397C39.0937 17.6292 35.5271 18.4123 31.997 18.4199C28.4673 18.4276 24.9092 17.6601 22.1708 16.0796C19.4352 14.5008 17.9389 12.3425 17.9532 10.0587C17.9675 7.77724 19.4881 5.61736 22.241 4.03014L22.2493 4.02538C22.4285 3.92583 22.6145 3.82258 22.8113 3.71898C23.0931 3.57067 23.4417 3.66833 23.6054 3.94145C23.7691 4.21458 23.691 4.56802 23.4273 4.74665C21.5542 6.01587 20.7731 7.51777 20.8523 8.89938C20.9318 10.2878 21.8916 11.7714 23.9705 12.9702C26.1519 14.2296 29.0565 14.8722 31.9992 14.8649C34.9417 14.8576 37.8576 14.2008 40.061 12.9302C42.1674 11.7149 43.1496 10.2166 43.2408 8.82082C43.3312 7.43593 42.5573 5.9368 40.6771 4.67858C40.4121 4.50124 40.332 4.14758 40.4949 3.87344ZM44.402 7.9512C44.7695 8.63387 44.9425 9.32826 44.9382 10.0037C44.9276 11.7072 43.7881 13.5374 41.251 15.0001C38.7178 16.4607 35.3694 17.2126 31.9944 17.2199C28.6191 17.2273 25.2822 16.4898 22.7706 15.0403C20.2562 13.5891 19.1425 11.7674 19.1532 10.0662C19.1574 9.40378 19.3322 8.72224 19.6935 8.05059C19.65 8.35345 19.6366 8.65973 19.6542 8.96799C19.7647 10.897 21.0798 12.6884 23.3707 14.0096C25.7793 15.4001 28.905 16.0726 32.0022 16.0649C35.0998 16.0572 38.2338 15.3691 40.6605 13.9697C42.974 12.6349 44.3119 10.8333 44.4382 8.89904C44.459 8.58029 44.4466 8.26381 44.402 7.9512Z" fill="#000222"></path></svg> 