<?xml version="1.0" encoding="UTF-8"?> <svg xmlns="http://www.w3.org/2000/svg" width="97" height="86" viewBox="0 0 97 86" fill="none"><path d="M95.251 48.5835L32.291 84.9335V55.7035L95.251 19.3535V48.5835Z" fill="#FFC700"></path><path fill-rule="evenodd" clip-rule="evenodd" d="M95.751 18.4875C96.0604 18.6661 96.251 18.9962 96.251 19.3535V48.5835C96.251 48.9408 96.0604 49.2709 95.751 49.4495L32.791 85.7995C32.4816 85.9782 32.1004 85.9782 31.791 85.7995C31.4816 85.6209 31.291 85.2908 31.291 84.9335V55.7035C31.291 55.3462 31.4816 55.0161 31.791 54.8375L94.751 18.4875C95.0604 18.3089 95.4416 18.3089 95.751 18.4875ZM33.291 56.2809V83.2015L94.251 48.0062V21.0856L33.291 56.2809Z" fill="#222222"></path><path d="M32.2914 84.9335L1.44141 67.1236V37.8835L32.2914 55.7035V84.9335Z" fill="#FFC700"></path><path fill-rule="evenodd" clip-rule="evenodd" d="M0.941498 37.0175C1.25095 36.8388 1.63219 36.8389 1.94159 37.0176L32.7916 54.8376C33.1009 55.0163 33.2914 55.3464 33.2914 55.7035V84.9335C33.2914 85.2908 33.1008 85.6209 32.7914 85.7996C32.482 85.9782 32.1008 85.9782 31.7914 85.7996L0.941433 67.9896C0.632017 67.811 0.441406 67.4808 0.441406 67.1236V37.8835C0.441406 37.5262 0.632045 37.1961 0.941498 37.0175ZM2.44141 39.616V66.5462L31.2914 83.2016V56.2808L2.44141 39.616Z" fill="#222222"></path><path d="M95.2514 19.3534L32.2914 55.7034L1.44141 37.8834L64.3914 1.53345L95.2514 19.3534Z" fill="#FFC700"></path><path fill-rule="evenodd" clip-rule="evenodd" d="M63.8914 0.667456C64.2008 0.488777 64.5821 0.488778 64.8915 0.667458L95.7515 18.4875C96.0608 18.6661 96.2514 18.9962 96.2514 19.3535C96.2514 19.7107 96.0608 20.0408 95.7514 20.2195L32.7914 56.5695C32.4819 56.7481 32.1007 56.7481 31.7912 56.5694L0.941222 38.7494C0.631903 38.5707 0.441381 38.2406 0.441406 37.8834C0.441432 37.5262 0.632001 37.1961 0.941346 37.0175L63.8914 0.667456ZM3.44092 37.8836L32.2915 54.5487L93.2515 19.3534L64.3914 2.68819L3.44092 37.8836Z" fill="#222222"></path><path d="M45.8797 28.2835C45.9097 26.2835 44.5997 24.2835 41.9697 22.7635C41.7697 22.6535 41.5697 22.5435 41.3597 22.4335C41.1697 22.3135 40.9797 22.1835 40.7797 22.0635C36.1897 19.4135 28.7297 19.4335 24.1097 22.0935C23.8897 22.2235 23.6697 22.3535 23.4697 22.4935C23.2797 22.5935 23.0997 22.6935 22.9197 22.7935C20.2897 24.3135 18.9597 26.2935 18.9397 28.2735V32.2335V37.8135C18.9197 39.8135 20.2197 41.8135 22.8497 43.3335C28.0897 46.3635 36.6297 46.3435 41.9097 43.2935C44.5697 41.7635 45.8897 39.7535 45.8897 37.7435V32.2335V28.2735L45.8797 28.2835Z" fill="#FFC700"></path><path fill-rule="evenodd" clip-rule="evenodd" d="M32.4539 19.0872C35.5988 19.0807 38.7956 19.7632 41.2797 21.1974L41.2942 21.206C41.4306 21.2878 41.5885 21.3904 41.7204 21.4762C41.7724 21.51 41.8203 21.5412 41.8614 21.5674C42.0662 21.6753 42.2609 21.7824 42.4468 21.8846L42.4516 21.8872L42.4701 21.8977C45.2199 23.4869 46.8432 25.7046 46.8796 28.1313C46.8863 28.1779 46.8897 28.2254 46.8897 28.2735V37.7435C46.8897 40.2348 45.2541 42.5231 42.4093 44.1597C39.5827 45.7923 35.9458 46.5857 32.3669 46.5935C28.7882 46.6012 25.1586 45.8237 22.3491 44.1991C19.5345 42.5724 17.9172 40.2921 17.9397 37.8087V28.2634C17.9645 25.8026 19.6124 23.5499 22.4193 21.9277L22.4341 21.9193L22.439 21.9165C22.6001 21.827 22.7702 21.7325 22.9499 21.6371C23.1659 21.4896 23.3923 21.3558 23.5863 21.2412L23.6107 21.2268C26.1068 19.7896 29.3084 19.0937 32.4539 19.0872ZM44.8897 28.4249C44.8824 28.3736 44.879 28.3213 44.8798 28.2685C44.9024 26.7622 43.9188 25.0478 41.4783 23.6345C41.2805 23.5257 41.0921 23.4222 40.8957 23.3193C40.8718 23.3068 40.8485 23.2933 40.8257 23.2789C40.7265 23.2163 40.6466 23.1641 40.5733 23.1162C40.472 23.05 40.383 22.9918 40.2723 22.9252C38.1672 21.7122 35.3422 21.0812 32.458 21.0872C29.5731 21.0932 26.7369 21.7362 24.6135 22.9573C24.389 23.0899 24.2048 23.1995 24.0431 23.3127C24.0087 23.3368 23.9727 23.3588 23.9354 23.3784C23.7595 23.471 23.5914 23.5642 23.4129 23.6634C20.9676 25.0789 19.9569 26.7822 19.9397 28.2788V37.8235C19.9245 39.338 20.9068 41.0555 23.3501 42.4677C25.7806 43.8731 29.0412 44.6007 32.3625 44.5935C35.6833 44.5862 38.9561 43.8448 41.4095 42.4275L41.4111 42.4266C43.8857 41.0033 44.8897 39.2718 44.8897 37.7435V28.4249Z" fill="#222222"></path><path d="M41.9698 22.7636C41.7698 22.6536 41.5698 22.5436 41.3598 22.4336C45.3498 25.1036 45.1298 29.1436 40.7098 31.6936C36.0898 34.3636 28.6198 34.3736 24.0398 31.7236C19.6798 29.2036 19.4898 25.1836 23.4598 22.4936C23.2698 22.5936 23.0898 22.6936 22.9098 22.7936C17.6298 25.8436 17.5998 30.7736 22.8398 33.7936C28.0798 36.8236 36.6198 36.8036 41.8998 33.7536C47.1798 30.7036 47.2098 25.7736 41.9698 22.7536V22.7636Z" fill="#FFC700"></path><path fill-rule="evenodd" clip-rule="evenodd" d="M40.8444 22.1271C41.0072 21.853 41.3561 21.7541 41.6386 21.9021C41.821 21.9977 41.9956 22.093 42.1654 22.1862C42.2012 22.1986 42.2362 22.2144 42.2698 22.2337C45.001 23.8078 46.4945 25.9638 46.4802 28.2461C46.4658 30.5258 44.9484 32.6857 42.2003 34.2731C39.4483 35.8628 35.884 36.6459 32.3565 36.6536C28.8293 36.6613 25.2735 35.8937 22.5398 34.313C19.8091 32.7389 18.3159 30.5832 18.3302 28.3011C18.3445 26.0214 19.862 23.8615 22.61 22.274L22.6187 22.269L22.6188 22.2691L22.6206 22.2681C22.7993 22.1688 22.9845 22.0659 23.1807 21.9626C23.4625 21.8143 23.8111 21.912 23.9748 22.1851C24.1385 22.4582 24.0604 22.8117 23.7967 22.9903C21.9235 24.2596 21.1453 25.7588 21.2254 27.1375C21.306 28.5237 22.2659 30.0051 24.3404 31.2041L24.3406 31.2043C26.5171 32.4636 29.4189 33.1085 32.3592 33.1036C35.2991 33.0987 38.2121 32.4443 40.41 31.1741L40.4103 31.1739C42.5173 29.9583 43.4991 28.4623 43.5902 27.0694C43.6806 25.6875 42.9072 24.1908 41.0265 22.9322C40.7615 22.7549 40.6815 22.4012 40.8444 22.1271ZM44.7512 26.1997C44.796 26.5124 44.8085 26.8289 44.7876 27.1477C44.6613 29.0798 43.3231 30.8788 41.01 32.2133C38.5879 33.613 35.456 34.2985 32.3612 34.3036C29.2664 34.3087 26.1432 33.6336 23.7397 32.2429C21.4543 30.922 20.1394 29.1334 20.0274 27.2071C20.0098 26.9036 20.0223 26.602 20.0641 26.3037C19.7071 26.9719 19.5343 27.6498 19.5302 28.3086C19.5195 30.0088 20.631 31.8278 23.1398 33.2737L23.1405 33.2742C25.6469 34.7234 28.9811 35.4609 32.3539 35.4536C35.7264 35.4463 39.072 34.6944 41.6001 33.234C44.132 31.7715 45.2695 29.9414 45.2802 28.2386C45.2844 27.5674 45.1137 26.8777 44.7512 26.1997Z" fill="#222222"></path><path d="M77.7507 9.88355C77.7807 7.88355 76.4708 5.88355 73.8408 4.36356C73.6408 4.25356 73.4408 4.14355 73.2308 4.03355C73.0408 3.91355 72.8508 3.78355 72.6508 3.66355C68.0608 1.01355 60.6008 1.03355 55.9808 3.69355C55.7608 3.82355 55.5408 3.95355 55.3408 4.09355C55.1508 4.19355 54.9708 4.29355 54.7908 4.39355C52.1608 5.91355 50.8308 7.89355 50.8108 9.87355V13.8336V19.4136C50.7908 21.4136 52.0907 23.4136 54.7207 24.9336C59.9607 27.9636 68.5008 27.9436 73.7808 24.8936C76.4408 23.3636 77.7608 21.3536 77.7608 19.3436V13.8336V9.87355L77.7507 9.88355Z" fill="#FFC700"></path><path fill-rule="evenodd" clip-rule="evenodd" d="M64.3249 0.687302C67.4699 0.680786 70.6667 1.36334 73.1508 2.79752L73.1653 2.80606C73.3017 2.88792 73.4596 2.99054 73.5914 3.07625C73.6434 3.11007 73.6914 3.14125 73.7324 3.1675C73.9379 3.27568 74.1331 3.38307 74.3196 3.48565L74.3227 3.48734L74.3412 3.49775C77.091 5.08703 78.7142 7.30468 78.7506 9.7314C78.7573 9.77803 78.7608 9.82551 78.7608 9.87355V19.3436C78.7608 21.8349 77.1252 24.1232 74.2803 25.7598C71.4538 27.3924 67.8169 28.1858 64.2379 28.1936C60.6593 28.2013 57.0296 27.4238 54.2202 25.7992C51.4056 24.1725 49.7883 21.8922 49.8108 19.4088V9.86345C49.8356 7.40269 51.4834 5.15 54.2904 3.52775L54.3051 3.5194L54.3085 3.51749C54.4702 3.4277 54.6408 3.33292 54.821 3.23719C55.0372 3.08957 55.2636 2.95576 55.4578 2.84101L55.4818 2.82687C57.9778 1.38975 61.1795 0.693819 64.3249 0.687302ZM76.7608 10.025C76.7535 9.9737 76.7501 9.92144 76.7509 9.86855C76.7735 8.3623 75.7899 6.64786 73.3494 5.23456C73.1516 5.1258 72.9632 5.02229 72.7668 4.91938C72.7429 4.90689 72.7195 4.89343 72.6968 4.87904C72.5975 4.81636 72.5177 4.7642 72.4443 4.71626C72.343 4.65006 72.2541 4.59193 72.1434 4.52532C70.0383 3.31228 67.2133 2.68132 64.3291 2.6873C61.4442 2.69328 58.608 3.33633 56.4845 4.5574C56.2601 4.69002 56.0759 4.79963 55.9142 4.91278C55.8798 4.93692 55.8438 4.95886 55.8065 4.97847C55.6306 5.07108 55.4625 5.16435 55.284 5.26351C52.8387 6.67895 51.828 8.38229 51.8108 9.87892V19.4236C51.7956 20.9381 52.7778 22.6557 55.2211 24.0678C57.6517 25.4732 60.9123 26.2008 64.2336 26.1936C67.5544 26.1863 70.8272 25.4448 73.2806 24.0276L73.2822 24.0267C75.7568 22.6034 76.7608 20.8719 76.7608 19.3436V10.025Z" fill="#222222"></path><path d="M73.8409 4.35344C73.6409 4.24344 73.4409 4.13344 73.2309 4.02344C77.2209 6.69344 77.0009 10.7334 72.5809 13.2834C67.9609 15.9534 60.4908 15.9634 55.9108 13.3134C51.5508 10.7934 51.3609 6.77344 55.3309 4.08344C55.1409 4.18344 54.9609 4.28344 54.7809 4.38344C49.5009 7.43344 49.4709 12.3634 54.7109 15.3834C59.9509 18.4134 68.4909 18.3934 73.7709 15.3434C79.0509 12.2934 79.0809 7.36344 73.8409 4.34344V4.35344Z" fill="#FFC700"></path><path fill-rule="evenodd" clip-rule="evenodd" d="M72.7154 3.71695C72.8783 3.44281 73.2272 3.34397 73.5097 3.49193C73.6921 3.5875 73.8667 3.68279 74.0365 3.77607C74.0723 3.78841 74.1073 3.80425 74.1409 3.82359C76.8721 5.39768 78.3656 7.55363 78.3512 9.83595C78.3369 12.1156 76.8195 14.2755 74.0714 15.863C71.3194 17.4527 67.7551 18.2358 64.2276 18.2434C60.7004 18.2511 57.1446 17.4836 54.4109 15.9028C51.6802 14.3288 50.1869 12.173 50.2013 9.89092C50.2156 7.61125 51.7331 5.45132 54.4811 3.86388L54.4898 3.85886L54.4899 3.85894L54.4926 3.85743C54.671 3.75834 54.8559 3.65562 55.0518 3.55249C55.3336 3.40418 55.6822 3.50183 55.8459 3.77496C56.0096 4.04808 55.9314 4.40153 55.6678 4.58015C53.7946 5.84941 53.0164 7.34862 53.0965 8.72738C53.177 10.1135 54.137 11.5949 56.2115 12.794L56.2117 12.7941C58.3882 14.0534 61.29 14.6983 64.2303 14.6934C67.1702 14.6886 70.0832 14.0341 72.281 12.7639L72.2814 12.7637C74.3883 11.5482 75.3702 10.0522 75.4613 8.65927C75.5517 7.27735 74.7783 5.78063 72.8976 4.52208C72.6325 4.34474 72.5525 3.99108 72.7154 3.71695ZM76.6223 7.78947C76.6671 8.10216 76.6796 8.41874 76.6587 8.7376C76.5323 10.6697 75.1942 12.4687 72.8811 13.8031C70.459 15.2028 67.3271 15.8883 64.2322 15.8934C61.1375 15.8986 58.0143 15.2235 55.6108 13.8328C53.3254 12.5118 52.0104 10.7233 51.8985 8.79699C51.8809 8.49347 51.8934 8.19186 51.9351 7.89356C51.5782 8.5618 51.4054 9.23965 51.4013 9.89845C51.3906 11.5986 52.5021 13.4177 55.0109 14.8636L55.0116 14.864C57.5179 16.3133 60.8522 17.0508 64.225 17.0434C67.5974 17.0361 70.9431 16.2842 73.4711 14.8239C76.0031 13.3613 77.1406 11.5312 77.1513 9.82841C77.1555 9.1572 76.9848 8.46746 76.6223 7.78947Z" fill="#222222"></path></svg> 