<?xml version="1.0" encoding="UTF-8"?> <svg xmlns="http://www.w3.org/2000/svg" id="Layer_1" data-name="Layer 1" viewBox="0 0 122.46 94.26"><defs><style> .cls-1 { fill: #000222; } .cls-1, .cls-2 { fill-rule: evenodd; } .cls-1, .cls-2, .cls-3 { stroke-width: 0px; } .cls-2 { fill: #222; } .cls-3 { fill: #ffc700; } </style></defs><path class="cls-3" d="M95.37,48.61l-62.96,36.35v-29.23l62.96-36.35v29.23Z"></path><path class="cls-2" d="M95.87,18.51c.31.18.5.51.5.87v29.23c0,.36-.19.69-.5.87l-62.96,36.35c-.31.18-.69.18-1,0-.31-.18-.5-.51-.5-.87v-29.23c0-.36.19-.69.5-.87l62.96-36.35c.31-.18.69-.18,1,0ZM33.41,56.3v26.92l60.96-35.2v-26.92l-60.96,35.2Z"></path><path class="cls-3" d="M32.41,84.96L1.56,67.15v-29.24l30.85,17.82v29.23Z"></path><path class="cls-2" d="M1.06,37.04c.31-.18.69-.18,1,0l30.85,17.82c.31.18.5.51.5.87v29.23c0,.36-.19.69-.5.87-.31.18-.69.18-1,0L1.06,68.01c-.31-.18-.5-.51-.5-.87v-29.24c0-.36.19-.69.5-.87ZM2.56,39.64v26.93l28.85,16.66v-26.92L2.56,39.64Z"></path><path class="cls-3" d="M95.37,19.38l-62.96,36.35L1.56,37.91,64.51,1.56l30.86,17.82Z"></path><path class="cls-2" d="M64.01.69c.31-.18.69-.18,1,0l30.86,17.82c.31.18.5.51.5.87s-.19.69-.5.87l-62.96,36.35c-.31.18-.69.18-1,0L1.06,38.77c-.31-.18-.5-.51-.5-.87,0-.36.19-.69.5-.87L64.01.69ZM3.56,37.91l28.85,16.67,60.96-35.2L64.51,2.71,3.56,37.91Z"></path><path class="cls-3" d="M46,28.31c.03-2-1.28-4-3.91-5.52-.2-.11-.4-.22-.61-.33-.19-.12-.38-.25-.58-.37-4.59-2.65-12.05-2.63-16.67.03-.22.13-.44.26-.64.4-.19.1-.37.2-.55.3-2.63,1.52-3.96,3.5-3.98,5.48v9.54c-.02,2,1.28,4,3.91,5.52,5.24,3.03,13.78,3.01,19.06-.04,2.66-1.53,3.98-3.54,3.98-5.55v-9.47h-.01Z"></path><path class="cls-2" d="M32.57,19.11c3.14,0,6.34.68,8.83,2.11h.01c.14.09.29.19.43.28.05.03.1.07.14.09.2.11.4.22.59.32h0s.02.01.02.01c2.75,1.59,4.37,3.81,4.41,6.23,0,.05.01.09.01.14v9.47c0,2.49-1.64,4.78-4.48,6.42-2.83,1.63-6.46,2.43-10.04,2.43-3.58,0-7.21-.77-10.02-2.39-2.81-1.63-4.43-3.91-4.41-6.39v-9.55c.02-2.46,1.67-4.71,4.48-6.34h.01s0-.01,0-.01c.16-.09.33-.18.51-.28.22-.15.44-.28.64-.4h.02c2.5-1.45,5.7-2.15,8.84-2.15ZM45.01,28.45c0-.05-.01-.1,0-.16.02-1.51-.96-3.22-3.4-4.63-.2-.11-.39-.21-.58-.32-.02-.01-.05-.03-.07-.04-.1-.06-.18-.11-.25-.16-.1-.07-.19-.12-.3-.19-2.11-1.21-4.93-1.84-7.81-1.84-2.88,0-5.72.65-7.84,1.87-.22.13-.41.24-.57.36-.03.02-.07.05-.11.07-.18.09-.34.19-.52.28-2.45,1.42-3.46,3.12-3.47,4.62v9.54c-.02,1.51.97,3.23,3.41,4.64,2.43,1.41,5.69,2.13,9.01,2.13,3.32,0,6.59-.75,9.05-2.17h0c2.47-1.42,3.48-3.16,3.48-4.68v-9.32Z"></path><path class="cls-3" d="M42.09,22.79c-.2-.11-.4-.22-.61-.33,3.99,2.67,3.77,6.71-.65,9.26-4.62,2.67-12.09,2.68-16.67.03-4.36-2.52-4.55-6.54-.58-9.23-.19.1-.37.2-.55.3-5.28,3.05-5.31,7.98-.07,11,5.24,3.03,13.78,3.01,19.06-.04,5.28-3.05,5.31-7.98.07-11h0Z"></path><path class="cls-2" d="M40.96,22.15c.16-.27.51-.37.79-.23.18.1.36.19.53.28.04.01.07.03.1.05,2.73,1.57,4.22,3.73,4.21,6.01-.01,2.28-1.53,4.44-4.28,6.03-2.75,1.59-6.32,2.37-9.84,2.38-3.53,0-7.08-.76-9.82-2.34-2.73-1.57-4.22-3.73-4.21-6.01.01-2.28,1.53-4.44,4.28-6.03h0s0,0,0,0h0c.18-.1.36-.2.56-.31.28-.15.63-.05.79.22s.09.63-.18.81c-1.87,1.27-2.65,2.77-2.57,4.15.08,1.39,1.04,2.87,3.11,4.07h0c2.18,1.26,5.08,1.9,8.02,1.9,2.94,0,5.85-.66,8.05-1.93h0c2.11-1.22,3.09-2.71,3.18-4.1.09-1.38-.68-2.88-2.56-4.14-.26-.18-.35-.53-.18-.81ZM44.87,26.22c.04.31.06.63.04.95-.13,1.93-1.46,3.73-3.78,5.07-2.42,1.4-5.55,2.09-8.65,2.09-3.09,0-6.22-.67-8.62-2.06-2.29-1.32-3.6-3.11-3.71-5.04-.02-.3,0-.61.04-.9-.36.67-.53,1.35-.53,2-.01,1.7,1.1,3.52,3.61,4.97h0c2.51,1.45,5.84,2.19,9.21,2.18,3.37,0,6.72-.76,9.25-2.22,2.53-1.46,3.67-3.29,3.68-5,0-.67-.17-1.36-.53-2.04Z"></path><path class="cls-3" d="M77.87,9.91c.03-2-1.28-4-3.91-5.52-.2-.11-.4-.22-.61-.33-.19-.12-.38-.25-.58-.37-4.59-2.65-12.05-2.63-16.67.03-.22.13-.44.26-.64.4-.19.1-.37.2-.55.3-2.63,1.52-3.96,3.5-3.98,5.48v9.54c-.02,2,1.28,4,3.91,5.52,5.24,3.03,13.78,3.01,19.06-.04,2.66-1.53,3.98-3.54,3.98-5.55v-9.47h-.01Z"></path><path class="cls-2" d="M64.44.71c3.15,0,6.34.68,8.83,2.11h.01c.14.09.29.19.43.28.05.03.1.06.14.09.21.11.4.22.59.32h0s.02.01.02.01c2.75,1.59,4.37,3.81,4.41,6.23,0,.05.01.09.01.14v9.47c0,2.49-1.64,4.78-4.48,6.42-2.83,1.63-6.46,2.43-10.04,2.43-3.58,0-7.21-.77-10.02-2.39-2.81-1.63-4.43-3.91-4.41-6.39v-9.55c.02-2.46,1.67-4.71,4.48-6.34h.01s0-.01,0-.01c.16-.09.33-.18.51-.28.22-.15.44-.28.64-.4h.02c2.5-1.45,5.7-2.15,8.84-2.15ZM76.88,10.05c0-.05-.01-.1,0-.16.02-1.51-.96-3.22-3.4-4.63-.2-.11-.39-.21-.58-.32-.02-.01-.05-.03-.07-.04-.1-.06-.18-.11-.25-.16-.1-.07-.19-.12-.3-.19-2.11-1.21-4.93-1.84-7.81-1.84-2.88,0-5.72.65-7.84,1.87-.22.13-.41.24-.57.36-.03.02-.07.05-.11.07-.18.09-.34.19-.52.29-2.45,1.42-3.46,3.12-3.47,4.62v9.54c-.02,1.51.97,3.23,3.41,4.64,2.43,1.41,5.69,2.13,9.01,2.13,3.32,0,6.59-.75,9.05-2.17h0c2.47-1.42,3.48-3.16,3.48-4.68v-9.32Z"></path><path class="cls-3" d="M73.96,4.38c-.2-.11-.4-.22-.61-.33,3.99,2.67,3.77,6.71-.65,9.26-4.62,2.67-12.09,2.68-16.67.03-4.36-2.52-4.55-6.54-.58-9.23-.19.1-.37.2-.55.3-5.28,3.05-5.31,7.98-.07,11,5.24,3.03,13.78,3.01,19.06-.04,5.28-3.05,5.31-7.98.07-11h0Z"></path><path class="cls-2" d="M72.83,3.74c.16-.27.51-.37.79-.23.18.1.36.19.53.28.04.01.07.03.1.05,2.73,1.57,4.22,3.73,4.21,6.01-.01,2.28-1.53,4.44-4.28,6.03-2.75,1.59-6.32,2.37-9.84,2.38-3.53,0-7.08-.76-9.82-2.34-2.73-1.57-4.22-3.73-4.21-6.01.01-2.28,1.53-4.44,4.28-6.03h0s0,0,0,0h0c.18-.1.36-.2.56-.31.28-.15.63-.05.79.22.16.27.09.63-.18.81-1.87,1.27-2.65,2.77-2.57,4.15.08,1.39,1.04,2.87,3.11,4.07h0c2.18,1.26,5.08,1.9,8.02,1.9,2.94,0,5.85-.66,8.05-1.93h0c2.11-1.22,3.09-2.71,3.18-4.1.09-1.38-.68-2.88-2.56-4.14-.27-.18-.35-.53-.18-.81ZM76.74,7.81c.04.31.06.63.04.95-.13,1.93-1.46,3.73-3.78,5.07-2.42,1.4-5.55,2.09-8.65,2.09-3.09,0-6.22-.67-8.62-2.06-2.29-1.32-3.6-3.11-3.71-5.04-.02-.3,0-.61.04-.9-.36.67-.53,1.35-.53,2-.01,1.7,1.1,3.52,3.61,4.97h0c2.51,1.45,5.84,2.19,9.21,2.18,3.37,0,6.72-.76,9.25-2.22,2.53-1.46,3.67-3.29,3.68-5,0-.67-.17-1.36-.53-2.04Z"></path><path class="cls-3" d="M120.52,45.78l-31.12,17.96-30.88-17.83,31.11-17.97,30.89,17.84Z"></path><path class="cls-1" d="M89.13,27.07c.31-.18.69-.18,1,0l30.89,17.84c.31.18.5.51.5.87,0,.36-.19.69-.5.87l-31.12,17.96c-.31.18-.69.18-1,0l-30.88-17.83c-.31-.18-.5-.51-.5-.87,0-.36.19-.69.5-.87l31.11-17.97ZM89.63,29.09l-29.11,16.82,28.88,16.68,29.12-16.81-28.89-16.68Z"></path><path class="cls-3" d="M120.51,75.04l-31.12,17.96v-29.26l31.12-17.96v29.26Z"></path><path class="cls-1" d="M121.01,44.91c.31.18.5.51.5.87v29.26c0,.36-.19.69-.5.87l-31.12,17.96c-.31.18-.69.18-1,0-.31-.18-.5-.51-.5-.87v-29.26c0-.36.19-.69.5-.87l31.12-17.96c.31-.18.69-.18,1,0ZM90.39,64.31v26.95l29.12-16.81v-26.95l-29.12,16.81Z"></path><path class="cls-3" d="M89.4,93l-30.88-17.83v-29.26l30.88,17.83v29.26Z"></path><path class="cls-1" d="M58.02,45.04c.31-.18.69-.18,1,0l30.88,17.83c.31.18.5.51.5.87v29.26c0,.36-.19.69-.5.87-.31.18-.69.18-1,0l-30.88-17.83c-.31-.18-.5-.51-.5-.87v-29.26c0-.36.19-.69.5-.87ZM59.52,47.64v26.95l28.88,16.68v-26.95l-28.88-16.68Z"></path><path class="cls-3" d="M103,36.29c.03-2-1.28-4.01-3.91-5.53-.2-.11-.4-.22-.61-.33-.19-.12-.38-.25-.59-.37-4.59-2.65-12.07-2.64-16.69.04-.23.13-.44.26-.64.4-.19.1-.37.2-.55.3-2.63,1.52-3.96,3.5-3.98,5.49v9.55c-.02,2,1.28,4,3.92,5.53,5.25,3.03,13.79,3.01,19.08-.04,2.66-1.54,3.99-3.55,3.98-5.55v-9.48h0Z"></path><path class="cls-1" d="M89.55,27.08c3.15,0,6.35.68,8.83,2.11.17.1.35.21.49.3.04.02.07.05.1.07.2.11.4.21.59.32h0s.02.01.02.01c2.76,1.6,4.38,3.83,4.41,6.27,0,.05,0,.09,0,.14v9.48c.01,2.49-1.64,4.77-4.48,6.42h0c-2.83,1.63-6.47,2.43-10.05,2.43-3.58,0-7.21-.77-10.03-2.39h0c-2.82-1.64-4.44-3.92-4.42-6.4v-9.56c.02-2.47,1.67-4.72,4.48-6.35h.01c.16-.1.33-.19.52-.29.21-.15.43-.28.66-.41,2.5-1.45,5.7-2.14,8.85-2.15ZM89.55,29.08c-2.89,0-5.73.65-7.86,1.88h0c-.21.12-.39.24-.56.35-.03.02-.07.05-.11.07-.18.09-.34.19-.52.29-2.44,1.41-3.46,3.12-3.47,4.63v9.55c-.02,1.51.97,3.23,3.42,4.65,2.44,1.41,5.7,2.13,9.02,2.13,3.32,0,6.6-.75,9.06-2.17,2.48-1.44,3.49-3.17,3.48-4.68h0v-9.35c0-.05-.01-.1,0-.16.02-1.51-.96-3.23-3.4-4.64-.2-.11-.39-.21-.58-.32-.02-.01-.05-.03-.07-.04-.08-.05-.15-.09-.21-.13-.12-.08-.22-.14-.34-.21h0c-2.11-1.22-4.94-1.85-7.83-1.85Z"></path><path class="cls-3" d="M99.08,30.77c-.2-.11-.4-.22-.61-.33,3.99,2.67,3.77,6.72-.65,9.27-4.63,2.67-12.1,2.69-16.69.04-4.37-2.52-4.55-6.55-.58-9.24-.19.1-.37.2-.55.3-5.29,3.05-5.32,7.98-.07,11.01,5.25,3.03,13.79,3.01,19.08-.04s5.32-7.98.07-11.01Z"></path><path class="cls-1" d="M97.96,30.13c.16-.27.51-.37.79-.23.22.11.42.22.62.33h.01c2.74,1.59,4.23,3.75,4.22,6.03-.01,2.28-1.53,4.44-4.29,6.03-2.76,1.59-6.32,2.37-9.85,2.38-3.53,0-7.09-.76-9.83-2.34-2.74-1.58-4.23-3.74-4.22-6.02.01-2.28,1.53-4.44,4.29-6.03h0c.18-.1.37-.21.56-.31.28-.15.63-.05.79.22.16.27.09.63-.18.81-1.87,1.27-2.65,2.77-2.57,4.15.08,1.39,1.04,2.87,3.12,4.07,2.18,1.26,5.09,1.9,8.03,1.89,2.94,0,5.86-.66,8.06-1.93,2.11-1.22,3.09-2.71,3.18-4.11.09-1.38-.68-2.88-2.56-4.14-.26-.18-.35-.53-.18-.81ZM101.87,34.21c.37.68.54,1.38.54,2.05-.01,1.7-1.15,3.53-3.69,5-2.53,1.46-5.88,2.21-9.26,2.22-3.38,0-6.71-.73-9.22-2.18-2.51-1.45-3.63-3.27-3.62-4.97,0-.66.18-1.34.54-2.02-.04.3-.06.61-.04.92.11,1.93,1.43,3.72,3.72,5.04,2.41,1.39,5.53,2.06,8.63,2.06,3.1,0,6.23-.7,8.66-2.1,2.31-1.33,3.65-3.14,3.78-5.07.02-.32,0-.64-.04-.95Z"></path></svg> 